<mxfile host="app.diagrams.net" modified="2022-09-15T10:16:50.475Z" agent="5.0 (Windows NT 10.0; Win64; x64) AppleWebKit/537.36 (KHTML, like Gecko) Chrome/105.0.0.0 Safari/537.36" etag="uz7OX3Qchis6fNSiMsHS" version="20.3.0" type="github">
  <diagram id="L5dI0UC7sgZC2DsjLOBH" name="Page-1">
    <mxGraphModel dx="868" dy="520" grid="1" gridSize="10" guides="1" tooltips="1" connect="1" arrows="1" fold="1" page="1" pageScale="1" pageWidth="850" pageHeight="1100" math="0" shadow="0">
      <root>
        <mxCell id="0" />
        <mxCell id="1" parent="0" />
        <mxCell id="7nrt5s9pfSOxWhGTTr82-10" value="stack_element" style="swimlane;fontStyle=1;align=center;verticalAlign=top;childLayout=stackLayout;horizontal=1;startSize=26;horizontalStack=0;resizeParent=1;resizeParentMax=0;resizeLast=0;collapsible=1;marginBottom=0;" vertex="1" parent="1">
          <mxGeometry x="140" y="145" width="200" height="124" as="geometry" />
        </mxCell>
        <mxCell id="7nrt5s9pfSOxWhGTTr82-11" value="int *stack_element&#xa;&#xa;int value" style="text;strokeColor=none;fillColor=none;align=left;verticalAlign=top;spacingLeft=4;spacingRight=4;overflow=hidden;rotatable=0;points=[[0,0.5],[1,0.5]];portConstraint=eastwest;" vertex="1" parent="7nrt5s9pfSOxWhGTTr82-10">
          <mxGeometry y="26" width="200" height="64" as="geometry" />
        </mxCell>
        <mxCell id="7nrt5s9pfSOxWhGTTr82-12" value="" style="line;strokeWidth=1;fillColor=none;align=left;verticalAlign=middle;spacingTop=-1;spacingLeft=3;spacingRight=3;rotatable=0;labelPosition=right;points=[];portConstraint=eastwest;strokeColor=inherit;" vertex="1" parent="7nrt5s9pfSOxWhGTTr82-10">
          <mxGeometry y="90" width="200" height="8" as="geometry" />
        </mxCell>
        <mxCell id="7nrt5s9pfSOxWhGTTr82-13" value="void point() //points to next element" style="text;strokeColor=none;fillColor=none;align=left;verticalAlign=top;spacingLeft=4;spacingRight=4;overflow=hidden;rotatable=0;points=[[0,0.5],[1,0.5]];portConstraint=eastwest;" vertex="1" parent="7nrt5s9pfSOxWhGTTr82-10">
          <mxGeometry y="98" width="200" height="26" as="geometry" />
        </mxCell>
        <mxCell id="7nrt5s9pfSOxWhGTTr82-16" value="stack" style="swimlane;fontStyle=1;align=center;verticalAlign=top;childLayout=stackLayout;horizontal=1;startSize=26;horizontalStack=0;resizeParent=1;resizeParentMax=0;resizeLast=0;collapsible=1;marginBottom=0;" vertex="1" parent="1">
          <mxGeometry x="530" y="162" width="160" height="140" as="geometry" />
        </mxCell>
        <mxCell id="7nrt5s9pfSOxWhGTTr82-17" value="stack_element top&#xa;&#xa;stack_element null" style="text;strokeColor=none;fillColor=none;align=left;verticalAlign=top;spacingLeft=4;spacingRight=4;overflow=hidden;rotatable=0;points=[[0,0.5],[1,0.5]];portConstraint=eastwest;" vertex="1" parent="7nrt5s9pfSOxWhGTTr82-16">
          <mxGeometry y="26" width="160" height="54" as="geometry" />
        </mxCell>
        <mxCell id="7nrt5s9pfSOxWhGTTr82-18" value="" style="line;strokeWidth=1;fillColor=none;align=left;verticalAlign=middle;spacingTop=-1;spacingLeft=3;spacingRight=3;rotatable=0;labelPosition=right;points=[];portConstraint=eastwest;strokeColor=inherit;" vertex="1" parent="7nrt5s9pfSOxWhGTTr82-16">
          <mxGeometry y="80" width="160" height="8" as="geometry" />
        </mxCell>
        <mxCell id="7nrt5s9pfSOxWhGTTr82-19" value="void push()&#xa;void peek()&#xa;stack_elemekt pop()" style="text;strokeColor=none;fillColor=none;align=left;verticalAlign=top;spacingLeft=4;spacingRight=4;overflow=hidden;rotatable=0;points=[[0,0.5],[1,0.5]];portConstraint=eastwest;" vertex="1" parent="7nrt5s9pfSOxWhGTTr82-16">
          <mxGeometry y="88" width="160" height="52" as="geometry" />
        </mxCell>
        <mxCell id="7nrt5s9pfSOxWhGTTr82-22" style="edgeStyle=orthogonalEdgeStyle;rounded=0;orthogonalLoop=1;jettySize=auto;html=1;entryX=0.006;entryY=0.278;entryDx=0;entryDy=0;entryPerimeter=0;startArrow=none;" edge="1" parent="1" source="7nrt5s9pfSOxWhGTTr82-23" target="7nrt5s9pfSOxWhGTTr82-17">
          <mxGeometry relative="1" as="geometry" />
        </mxCell>
        <mxCell id="7nrt5s9pfSOxWhGTTr82-23" value="Composition using pointer" style="text;html=1;strokeColor=none;fillColor=none;align=center;verticalAlign=middle;whiteSpace=wrap;rounded=0;" vertex="1" parent="1">
          <mxGeometry x="370" y="170" width="95" height="30" as="geometry" />
        </mxCell>
        <mxCell id="7nrt5s9pfSOxWhGTTr82-24" value="" style="edgeStyle=orthogonalEdgeStyle;rounded=0;orthogonalLoop=1;jettySize=auto;html=1;entryX=0.006;entryY=0.278;entryDx=0;entryDy=0;entryPerimeter=0;endArrow=none;" edge="1" parent="1" source="7nrt5s9pfSOxWhGTTr82-11" target="7nrt5s9pfSOxWhGTTr82-23">
          <mxGeometry relative="1" as="geometry">
            <mxPoint x="340" y="203.01199999999994" as="sourcePoint" />
            <mxPoint x="480.96000000000004" y="203.01199999999994" as="targetPoint" />
          </mxGeometry>
        </mxCell>
      </root>
    </mxGraphModel>
  </diagram>
</mxfile>
